<svg width="133" height="32" viewBox="0 0 133 32" fill="none" xmlns="http://www.w3.org/2000/svg">
<path d="M15.872 21.9435C15.9147 22.4128 16.1173 22.8395 16.48 23.2235C16.8427 23.5861 17.024 23.8741 17.024 24.0875V24.2155C17.024 24.5141 16.8 24.6635 16.352 24.6635H11.648C11.2 24.6635 10.976 24.5141 10.976 24.2155V24.0875C10.976 23.8955 11.168 23.6181 11.552 23.2555C11.9573 22.8715 12.1493 22.4448 12.128 21.9755L11.808 15.6395C11.6587 12.2261 10.5387 10.5195 8.448 10.5195C7.44533 10.5195 6.63467 10.8928 6.016 11.6395C5.39733 12.3648 5.088 13.3141 5.088 14.4875V22.0075C5.088 22.4555 5.30133 22.8715 5.728 23.2555C6.176 23.6181 6.4 23.8955 6.4 24.0875V24.1835C6.4 24.5035 6.16533 24.6635 5.696 24.6635H0.736C0.288 24.6635 0.064 24.5035 0.064 24.1835V24.0875C0.064 23.8955 0.170667 23.7141 0.384 23.5435C0.597333 23.3515 0.810667 23.1381 1.024 22.9035C1.23733 22.6688 1.344 22.3701 1.344 22.0075V5.01542C1.344 4.63142 1.22667 4.31142 0.992 4.05542C0.778667 3.79942 0.554667 3.59676 0.32 3.44742C0.106667 3.27676 0 3.10609 0 2.93542V2.83942C0 2.56209 0.181333 2.33809 0.544 2.16742L3.968 0.663419C4.65067 0.364753 4.992 0.53542 4.992 1.17542L4.96 11.1275C5.984 9.69809 7.47733 8.98343 9.44 8.98343C11.0827 8.98343 12.4693 9.53809 13.6 10.6475C14.7307 11.7568 15.36 13.4528 15.488 15.7355L15.872 21.9435Z" fill="#F8470A"/>
<path d="M27.2971 24.9838C24.6731 24.9838 22.5717 24.1838 20.993 22.5838C19.4144 20.9838 18.625 19.0638 18.625 16.8238C18.625 14.5838 19.3931 12.7171 20.9291 11.2238C22.4651 9.73042 24.3424 8.98376 26.5611 8.98376C29.0357 8.98376 31.0624 9.77309 32.6411 11.3518C34.2197 12.9091 35.0091 14.8184 35.0091 17.0798C35.0091 19.3198 34.2944 21.1971 32.865 22.7118C31.4357 24.2264 29.5797 24.9838 27.2971 24.9838ZM27.7771 23.7678C28.801 23.7678 29.6331 23.2984 30.2731 22.3598C30.9131 21.3998 31.233 20.0771 31.233 18.3918C31.233 16.1304 30.7424 14.1998 29.761 12.5998C28.801 10.9998 27.5957 10.1998 26.1451 10.1998C24.9931 10.1998 24.0757 10.6691 23.393 11.6078C22.7317 12.5251 22.4011 13.8478 22.4011 15.5758C22.4011 17.6664 22.9024 19.5544 23.9051 21.2398C24.9291 22.9251 26.2197 23.7678 27.7771 23.7678Z" fill="#F8470A"/>
<path d="M63.2432 21.9758C63.2646 22.4451 63.4566 22.8718 63.8192 23.2558C64.2032 23.6398 64.3952 23.9278 64.3952 24.1198V24.2478C64.3952 24.5464 64.1713 24.6958 63.7233 24.6958H59.0192C58.5712 24.6958 58.3472 24.5464 58.3472 24.2478V24.1198C58.3472 23.9278 58.5392 23.6504 58.9232 23.2878C59.3072 22.9038 59.4886 22.4771 59.4673 22.0078L59.1473 15.9598C59.0619 14.0398 58.7313 12.6531 58.1553 11.7998C57.6006 10.9464 56.8006 10.5198 55.7552 10.5198C54.8806 10.5198 54.1339 10.8824 53.5153 11.6078C52.9179 12.3118 52.5979 13.2078 52.5552 14.2958C52.6406 14.7224 52.6833 15.2344 52.6833 15.8318V22.0078C52.6833 22.4771 52.8646 22.9038 53.2272 23.2878C53.6112 23.6504 53.8032 23.9278 53.8032 24.1198V24.2478C53.8032 24.5464 53.5792 24.6958 53.1312 24.6958H48.4912C48.0219 24.6958 47.7873 24.5464 47.7873 24.2478V24.1198C47.7873 23.9278 47.9686 23.6504 48.3312 23.2878C48.7152 22.9038 48.9072 22.4771 48.9072 22.0078V15.6078C48.9072 14.0078 48.5873 12.7598 47.9473 11.8638C47.3286 10.9678 46.5286 10.5198 45.5472 10.5198C44.5872 10.5198 43.7979 10.8824 43.1792 11.6078C42.5606 12.3118 42.2299 13.2184 42.1872 14.3278L42.2193 22.0078C42.2193 22.4771 42.4326 22.9038 42.8592 23.2878C43.2859 23.6504 43.4992 23.9278 43.4992 24.1198V24.2478C43.4992 24.5464 43.2753 24.6958 42.8273 24.6958H37.8672C37.3979 24.6958 37.1633 24.5464 37.1633 24.2478V24.1198C37.1633 23.9278 37.3766 23.6504 37.8032 23.2878C38.2299 22.9038 38.4432 22.4771 38.4432 22.0078V13.4318C38.4432 13.0478 38.3259 12.7278 38.0913 12.4718C37.8566 12.2158 37.6219 12.0024 37.3872 11.8318C37.1526 11.6611 37.0352 11.4798 37.0352 11.2878V11.1918C37.0352 10.9784 37.2272 10.7864 37.6112 10.6158L40.8752 9.11175C41.2166 8.96242 41.4726 8.95175 41.6433 9.07975C41.8139 9.18642 41.8993 9.38909 41.8993 9.68775V11.5758C42.3686 10.7864 42.9979 10.1571 43.7873 9.68775C44.5979 9.21842 45.4939 8.98376 46.4753 8.98376C47.6486 8.98376 48.7046 9.26109 49.6433 9.81575C50.6032 10.3704 51.3499 11.1491 51.8833 12.1518C52.2886 11.1491 52.9393 10.3704 53.8353 9.81575C54.7313 9.26109 55.7446 8.98376 56.8752 8.98376C58.5392 8.98376 59.9046 9.54909 60.9712 10.6798C62.0592 11.7891 62.6886 13.5811 62.8592 16.0558L63.2432 21.9758Z" fill="#F8470A"/>
<path d="M72.6255 24.9518C70.6415 24.9518 69.0308 24.5784 67.7935 23.8318C66.5562 23.0638 65.9375 22.2104 65.9375 21.2718C65.9375 20.8024 66.0762 20.4398 66.3535 20.1838C66.6522 19.9278 67.0468 19.7998 67.5375 19.7998C67.9642 19.7998 68.3162 19.9384 68.5935 20.2158C68.8922 20.4931 69.1268 20.8344 69.2975 21.2398C69.4682 21.6451 69.6602 22.0504 69.8735 22.4558C70.1082 22.8398 70.4495 23.1704 70.8975 23.4478C71.3668 23.7251 71.9428 23.8638 72.6255 23.8638C73.5002 23.8638 74.2042 23.6504 74.7375 23.2238C75.2922 22.7971 75.5695 22.1891 75.5695 21.3998C75.5695 20.6104 75.2495 20.0024 74.6095 19.5758C73.9695 19.1278 73.1908 18.7971 72.2735 18.5838C71.3775 18.3704 70.4708 18.1251 69.5535 17.8478C68.6362 17.5704 67.8575 17.0798 67.2175 16.3758C66.5775 15.6504 66.2575 14.7011 66.2575 13.5278C66.2575 12.2264 66.8442 11.1491 68.0175 10.2958C69.1908 9.42109 70.6948 8.98376 72.5295 8.98376C74.4282 8.98376 75.9642 9.37842 77.1375 10.1678C78.3322 10.9358 78.9295 11.8104 78.9295 12.7918C78.9295 13.1971 78.7908 13.5278 78.5135 13.7838C78.2362 14.0398 77.8842 14.1678 77.4575 14.1678C77.0522 14.1678 76.7108 14.0291 76.4335 13.7518C76.1775 13.4744 75.9535 13.1438 75.7615 12.7598C75.5908 12.3544 75.3988 11.9598 75.1855 11.5758C74.9935 11.1704 74.6842 10.8291 74.2575 10.5518C73.8522 10.2744 73.3402 10.1358 72.7215 10.1358C71.9535 10.1358 71.3135 10.3704 70.8015 10.8398C70.2895 11.3091 70.0335 11.8958 70.0335 12.5998C70.0335 13.3891 70.3535 14.0078 70.9935 14.4558C71.6335 14.9038 72.4015 15.2451 73.2975 15.4798C74.2148 15.6931 75.1322 15.9384 76.0495 16.2158C76.9668 16.4931 77.7455 16.9838 78.3855 17.6878C79.0255 18.3918 79.3455 19.3304 79.3455 20.5038C79.3455 21.7838 78.7268 22.8504 77.4895 23.7038C76.2735 24.5358 74.6522 24.9518 72.6255 24.9518Z" fill="#F8470A"/>
<path d="M87.1761 24.9835C85.7894 24.9835 84.6907 24.5461 83.8801 23.6715C83.0907 22.7755 82.696 21.4848 82.696 19.7995V10.8715H80.872C80.5094 10.8715 80.3281 10.6901 80.3281 10.3275V9.87949C80.3281 9.49548 80.5094 9.30348 80.872 9.30348H81.8641C82.6747 9.30348 83.3254 9.02615 83.816 8.47148C84.328 7.91682 84.648 7.15948 84.776 6.19948C84.84 5.73015 85.0534 5.49548 85.416 5.49548H85.8961C86.3014 5.49548 86.5041 5.73015 86.5041 6.19948L86.5361 9.30348H90.568C90.7387 9.30348 90.8774 9.35682 90.984 9.46348C91.0907 9.57015 91.1441 9.70882 91.1441 9.87949V10.3275C91.1441 10.6901 90.952 10.8715 90.568 10.8715H86.5361V19.8315C86.5361 20.5781 86.7067 21.1648 87.0481 21.5915C87.3894 21.9968 87.8267 22.1995 88.36 22.1995C89.64 22.1995 90.3974 21.6448 90.6321 20.5355C90.7174 20.3648 90.8454 20.2581 91.016 20.2155C91.1867 20.1728 91.3361 20.1941 91.4641 20.2795C91.6134 20.3648 91.6881 20.5035 91.6881 20.6955C91.6881 21.8475 91.2721 22.8501 90.4401 23.7035C89.6294 24.5568 88.5414 24.9835 87.1761 24.9835Z" fill="#F8470A"/>
<path d="M108.462 9.3031C108.825 9.3031 109.006 9.45244 109.006 9.7511V9.87911C109.006 10.1138 108.803 10.4338 108.398 10.8392C107.993 11.2232 107.683 11.6498 107.47 12.1192L101.422 25.3671C101.038 26.2417 100.707 26.9352 100.43 27.4472C100.174 27.9592 99.7896 28.5778 99.2776 29.3032C98.7869 30.0285 98.2216 30.5725 97.5816 30.9352C96.9416 31.2978 96.2483 31.4791 95.5016 31.4791C94.2429 31.4791 93.2083 31.1485 92.3976 30.4872C91.5869 29.8472 91.1816 29.1325 91.1816 28.3432C91.1816 27.8738 91.3203 27.4897 91.5976 27.1912C91.8749 26.8925 92.2589 26.7431 92.7496 26.7431C93.2189 26.7431 93.6029 26.9137 93.9016 27.2551C94.2003 27.6178 94.4029 28.0125 94.5096 28.4392C94.6376 28.8872 94.8296 29.2817 95.0856 29.6231C95.3416 29.9858 95.6723 30.1672 96.0776 30.1672C97.1869 30.1672 98.3816 28.5778 99.6616 25.3992L93.4216 12.1192C93.1869 11.6498 92.8563 11.2232 92.4296 10.8392C92.0029 10.4338 91.7896 10.1138 91.7896 9.87911V9.7511C91.7896 9.45244 91.9816 9.3031 92.3656 9.3031H97.4216C97.7843 9.3031 97.9656 9.4631 97.9656 9.7831V9.87911C97.9656 10.0498 97.8696 10.2418 97.6776 10.4552C97.4856 10.6685 97.3469 10.8712 97.2616 11.0632C97.1976 11.2552 97.2616 11.6178 97.4536 12.1512L101.678 21.8471L105.646 12.5032C105.838 11.8632 105.838 11.4258 105.646 11.1912C105.454 10.9352 105.187 10.7005 104.846 10.4872C104.505 10.2525 104.334 10.0498 104.334 9.87911V9.7831C104.334 9.4631 104.526 9.3031 104.91 9.3031H108.462Z" fill="#F8470A"/>
<path d="M110.676 24.6632C110.228 24.6632 110.004 24.5032 110.004 24.1832V24.0872C110.004 23.8738 110.196 23.5858 110.58 23.2232C110.985 22.8605 111.188 22.4552 111.188 22.0072V5.1432C111.188 4.6312 110.985 4.17254 110.58 3.7672C110.196 3.36187 110.004 3.0952 110.004 2.9672V2.8712C110.004 2.6792 110.185 2.4872 110.548 2.2952L113.78 0.695201C114.143 0.545867 114.42 0.5352 114.612 0.663199C114.825 0.769866 114.932 0.951199 114.932 1.2072V22.0072C114.932 22.4552 115.145 22.8712 115.572 23.2552C116.02 23.6178 116.244 23.8952 116.244 24.0872V24.1832C116.244 24.5032 116.009 24.6632 115.54 24.6632H110.676Z" fill="#F8470A"/>
<path d="M131.214 19.9598C131.384 19.7251 131.598 19.6398 131.854 19.7038C132.131 19.7678 132.259 19.9598 132.238 20.2798C132.067 21.4104 131.406 22.4771 130.254 23.4798C129.102 24.4824 127.598 24.9838 125.742 24.9838C123.566 24.9838 121.752 24.2371 120.302 22.7438C118.872 21.2504 118.158 19.2878 118.158 16.8558C118.158 14.5944 118.894 12.7171 120.366 11.2238C121.859 9.73042 123.672 8.98376 125.806 8.98376C127.726 8.98376 129.198 9.46376 130.222 10.4238C131.267 11.3624 131.79 12.4504 131.79 13.6878C131.79 14.7971 131.246 15.5438 130.158 15.9278L122.414 18.7758C122.819 19.8851 123.427 20.7491 124.238 21.3678C125.048 21.9864 126.008 22.2958 127.118 22.2958C128.078 22.2958 128.91 22.0824 129.614 21.6558C130.339 21.2078 130.872 20.6424 131.214 19.9598ZM125.166 10.1998C124.163 10.1998 123.363 10.6798 122.766 11.6398C122.168 12.5998 121.87 13.8584 121.87 15.4158C121.87 16.1411 121.934 16.8238 122.062 17.4638L127.374 15.1598C127.928 14.9038 128.206 14.4558 128.206 13.8158C128.206 13.0478 127.907 12.2584 127.31 11.4478C126.734 10.6158 126.019 10.1998 125.166 10.1998Z" fill="#F8470A"/>
</svg>
